<?xml version="1.0" standalone="no"?><!DOCTYPE svg PUBLIC "-//W3C//DTD SVG 1.1//EN" "http://www.w3.org/Graphics/SVG/1.1/DTD/svg11.dtd"><svg t="1535443023423" class="icon" style="" viewBox="0 0 1024 1024" version="1.1" xmlns="http://www.w3.org/2000/svg" p-id="3252" xmlns:xlink="http://www.w3.org/1999/xlink" width="128" height="128"><defs><style type="text/css"></style></defs><path d="M512 1024c282.304 0 512-229.696 512-512S794.304 0 512 0 0 229.696 0 512s229.696 512 512 512z m0-992c264.672 0 480 215.328 480 480s-215.328 480-480 480S32 776.672 32 512 247.328 32 512 32z" fill="#515151" p-id="3253"></path><path d="M641.952 696.576a15.936 15.936 0 0 0 22.656 0 16 16 0 0 0 0-22.624L512 521.376V298.208a16 16 0 0 0-32 0V528c0 4.256 1.696 8.32 4.672 11.328l157.28 157.248z" fill="#515151" p-id="3254"></path><path d="M128 512m-32 0a32 32 0 1 0 64 0 32 32 0 1 0-64 0Z" fill="#515151" p-id="3255"></path><path d="M896 512m-32 0a32 32 0 1 0 64 0 32 32 0 1 0-64 0Z" fill="#515151" p-id="3256"></path><path d="M512 128m-32 0a32 32 0 1 0 64 0 32 32 0 1 0-64 0Z" fill="#515151" p-id="3257"></path><path d="M512 896m-32 0a32 32 0 1 0 64 0 32 32 0 1 0-64 0Z" fill="#515151" p-id="3258"></path><path d="M256 256m-32 0a32 32 0 1 0 64 0 32 32 0 1 0-64 0Z" fill="#515151" p-id="3259"></path><path d="M768 768m-32 0a32 32 0 1 0 64 0 32 32 0 1 0-64 0Z" fill="#515151" p-id="3260"></path><path d="M800 256m-32 0a32 32 0 1 0 64 0 32 32 0 1 0-64 0Z" fill="#515151" p-id="3261"></path><path d="M256 768m-32 0a32 32 0 1 0 64 0 32 32 0 1 0-64 0Z" fill="#515151" p-id="3262"></path></svg>