<?xml version="1.0" standalone="no"?>
<!DOCTYPE svg PUBLIC "-//W3C//DTD SVG 1.1//EN" "http://www.w3.org/Graphics/SVG/1.1/DTD/svg11.dtd">
<svg xmlns="http://www.w3.org/2000/svg" xmlns:xlink="http://www.w3.org/1999/xlink" width="32" height="32" class="icon" p-id="2249" style="" t="1535338913354" version="1.1" viewBox="0 0 1024 1024">
    <defs>
        <style type="text/css"/>
    </defs>
    <path fill="#515151" d="M640 128h256v16H640z" p-id="2250"/>
    <path fill="#515151" d="M880 128h16v256h-16zM128 128h256v16H128z" p-id="2251"/>
    <path fill="#515151" d="M128 128h16v256h-16zM128 640h16v256h-16zM144 880h240v16H144zM640 880h256v16H640zM880 640h16v240h-16zM256 640h16v128h-16z" p-id="2252"/>
    <path fill="#515151" d="M256 752h128v16H256zM256 256h128v16H256z" p-id="2253"/>
    <path fill="#515151" d="M256 256h16v128h-16zM640 256h128v16H640z" p-id="2254"/>
    <path fill="#515151" d="M752 256h16v128h-16zM640 752h128v16H640zM752 640h16v112h-16zM372.72 643.554l11.313 11.313-113.136 113.136-11.313-11.313z" p-id="2255"/>
    <path fill="#515151" d="M639.999 651.36l11.315-11.312L764.434 753.2l-11.315 11.312zM753.165 259.53l11.314 11.314L651.343 383.98l-11.314-11.314zM259.544 270.843l11.314-11.314 113.137 113.137-11.314 11.313z" p-id="2256"/>
</svg>
