<?xml version="1.0" standalone="no"?><!DOCTYPE svg PUBLIC "-//W3C//DTD SVG 1.1//EN" "http://www.w3.org/Graphics/SVG/1.1/DTD/svg11.dtd"><svg t="1535339508858" class="icon" style="" viewBox="0 0 1024 1024" version="1.1" xmlns="http://www.w3.org/2000/svg" p-id="2530" xmlns:xlink="http://www.w3.org/1999/xlink" width="32" height="32"><defs><style type="text/css"></style></defs><path d="M640 128h256v16H640z" p-id="2531"></path><path d="M880 128h16v256h-16zM128 128h256v16H128z" p-id="2532"></path><path d="M128 128h16v256h-16zM128 640h16v256h-16zM144 880h240v16H144zM640 880h256v16H640zM880 640h16v240h-16zM640 256h16v128h-16z" p-id="2533"></path><path d="M640 368h128v16H640zM640 640h128v16H640z" p-id="2534"></path><path d="M640 640h16v128h-16zM256 640h128v16H256z" p-id="2535"></path><path d="M368 640h16v128h-16zM256 368h128v16H256zM368 256h16v112h-16zM756.699 259.536l11.313 11.314-113.136 113.136-11.314-11.313z" p-id="2536"></path><path d="M255.996 267.294l11.314-11.313 113.137 113.137-11.314 11.313zM369.17 643.554l11.314 11.313-113.136 113.136-11.313-11.313zM643.54 654.82l11.313-11.314 113.136 113.137-11.313 11.313z" p-id="2537"></path></svg>